<mxfile host="app.diagrams.net" modified="2021-08-12T06:59:11.908Z" agent="5.0 (X11; Linux x86_64) AppleWebKit/537.36 (KHTML, like Gecko) Chrome/92.0.4515.131 Safari/537.36" etag="gLZeu5dTsbc3oxwjHdzp" version="14.9.6" type="github">
  <diagram id="pWHlGzxmwyabwXG8FdJH" name="Page-1">
    <mxGraphModel dx="1382" dy="728" grid="1" gridSize="10" guides="1" tooltips="1" connect="1" arrows="1" fold="1" page="1" pageScale="1" pageWidth="827" pageHeight="1169" background="#114B5F" math="0" shadow="0">
      <root>
        <mxCell id="0" />
        <mxCell id="1" parent="0" />
        <mxCell id="Qll9KSVg3EDIvkz421HC-3" value="" style="edgeStyle=orthogonalEdgeStyle;rounded=0;orthogonalLoop=1;jettySize=auto;html=1;strokeColor=#028090;fontColor=#E4FDE1;labelBackgroundColor=#114B5F;" edge="1" parent="1" source="Qll9KSVg3EDIvkz421HC-1" target="Qll9KSVg3EDIvkz421HC-2">
          <mxGeometry relative="1" as="geometry" />
        </mxCell>
        <mxCell id="Qll9KSVg3EDIvkz421HC-1" value="&lt;font style=&quot;font-size: 18px&quot;&gt;上层软件调用&lt;/font&gt;" style="rounded=1;whiteSpace=wrap;html=1;fillColor=#F45B69;strokeColor=#028090;fontColor=#E4FDE1;" vertex="1" parent="1">
          <mxGeometry x="130" y="110" width="120" height="60" as="geometry" />
        </mxCell>
        <mxCell id="Qll9KSVg3EDIvkz421HC-12" value="" style="edgeStyle=orthogonalEdgeStyle;curved=0;rounded=1;sketch=0;orthogonalLoop=1;jettySize=auto;html=1;fontColor=#E4FDE1;strokeColor=#028090;fillColor=#F45B69;labelBackgroundColor=#114B5F;" edge="1" parent="1" source="Qll9KSVg3EDIvkz421HC-2" target="Qll9KSVg3EDIvkz421HC-11">
          <mxGeometry relative="1" as="geometry" />
        </mxCell>
        <mxCell id="Qll9KSVg3EDIvkz421HC-2" value="&lt;font style=&quot;font-size: 18px&quot;&gt;获取设备属性&lt;/font&gt;" style="rounded=1;whiteSpace=wrap;html=1;fillColor=#F45B69;strokeColor=#028090;fontColor=#E4FDE1;" vertex="1" parent="1">
          <mxGeometry x="130" y="230" width="120" height="60" as="geometry" />
        </mxCell>
        <mxCell id="Qll9KSVg3EDIvkz421HC-19" value="" style="edgeStyle=orthogonalEdgeStyle;curved=0;rounded=1;sketch=0;orthogonalLoop=1;jettySize=auto;html=1;fontColor=#E4FDE1;strokeColor=#028090;fillColor=#F45B69;labelBackgroundColor=#114B5F;" edge="1" parent="1" source="Qll9KSVg3EDIvkz421HC-6" target="Qll9KSVg3EDIvkz421HC-18">
          <mxGeometry relative="1" as="geometry" />
        </mxCell>
        <mxCell id="Qll9KSVg3EDIvkz421HC-6" value="&lt;span style=&quot;font-size: 18px&quot;&gt;用户自定义文件&lt;/span&gt;" style="rounded=1;whiteSpace=wrap;html=1;fillColor=#F45B69;strokeColor=#028090;fontColor=#E4FDE1;" vertex="1" parent="1">
          <mxGeometry x="130" y="550" width="120" height="60" as="geometry" />
        </mxCell>
        <mxCell id="Qll9KSVg3EDIvkz421HC-10" value="" style="edgeStyle=orthogonalEdgeStyle;curved=0;rounded=1;sketch=0;orthogonalLoop=1;jettySize=auto;html=1;fontColor=#E4FDE1;strokeColor=#028090;fillColor=#F45B69;labelBackgroundColor=#114B5F;" edge="1" parent="1" source="Qll9KSVg3EDIvkz421HC-8" target="Qll9KSVg3EDIvkz421HC-9">
          <mxGeometry relative="1" as="geometry" />
        </mxCell>
        <mxCell id="Qll9KSVg3EDIvkz421HC-8" value="&lt;font style=&quot;font-size: 18px&quot;&gt;dbus接口&lt;/font&gt;" style="ellipse;whiteSpace=wrap;html=1;rounded=0;sketch=0;fontColor=#E4FDE1;strokeColor=#028090;fillColor=#F45B69;" vertex="1" parent="1">
          <mxGeometry x="270" y="170" width="90" height="60" as="geometry" />
        </mxCell>
        <mxCell id="Qll9KSVg3EDIvkz421HC-9" value="" style="shape=waypoint;sketch=0;size=6;pointerEvents=1;points=[];fillColor=#F45B69;resizable=0;rotatable=0;perimeter=centerPerimeter;snapToPoint=1;rounded=0;fontColor=#E4FDE1;strokeColor=#028090;" vertex="1" parent="1">
          <mxGeometry x="170" y="180" width="40" height="40" as="geometry" />
        </mxCell>
        <mxCell id="Qll9KSVg3EDIvkz421HC-14" value="" style="edgeStyle=orthogonalEdgeStyle;curved=0;rounded=1;sketch=0;orthogonalLoop=1;jettySize=auto;html=1;fontColor=#E4FDE1;strokeColor=#028090;fillColor=#F45B69;labelBackgroundColor=#114B5F;" edge="1" parent="1" source="Qll9KSVg3EDIvkz421HC-11" target="Qll9KSVg3EDIvkz421HC-13">
          <mxGeometry relative="1" as="geometry" />
        </mxCell>
        <mxCell id="Qll9KSVg3EDIvkz421HC-16" value="" style="edgeStyle=orthogonalEdgeStyle;curved=0;rounded=1;sketch=0;orthogonalLoop=1;jettySize=auto;html=1;fontColor=#E4FDE1;strokeColor=#028090;fillColor=#F45B69;labelBackgroundColor=#114B5F;" edge="1" parent="1" source="Qll9KSVg3EDIvkz421HC-11" target="Qll9KSVg3EDIvkz421HC-15">
          <mxGeometry relative="1" as="geometry" />
        </mxCell>
        <mxCell id="Qll9KSVg3EDIvkz421HC-11" value="&lt;font style=&quot;font-size: 18px&quot;&gt;是否为可移动存储介质&lt;/font&gt;" style="rhombus;whiteSpace=wrap;html=1;rounded=1;fillColor=#F45B69;strokeColor=#028090;fontColor=#E4FDE1;" vertex="1" parent="1">
          <mxGeometry x="120" y="310" width="140" height="105" as="geometry" />
        </mxCell>
        <mxCell id="Qll9KSVg3EDIvkz421HC-17" value="" style="edgeStyle=orthogonalEdgeStyle;curved=0;rounded=1;sketch=0;orthogonalLoop=1;jettySize=auto;html=1;fontColor=#E4FDE1;strokeColor=#028090;fillColor=#F45B69;labelBackgroundColor=#114B5F;" edge="1" parent="1" source="Qll9KSVg3EDIvkz421HC-13" target="Qll9KSVg3EDIvkz421HC-6">
          <mxGeometry relative="1" as="geometry" />
        </mxCell>
        <mxCell id="Qll9KSVg3EDIvkz421HC-13" value="&lt;font style=&quot;font-size: 18px&quot;&gt;操作函数&lt;/font&gt;" style="rounded=1;whiteSpace=wrap;html=1;fillColor=#F45B69;strokeColor=#028090;fontColor=#E4FDE1;" vertex="1" parent="1">
          <mxGeometry x="130" y="450" width="120" height="60" as="geometry" />
        </mxCell>
        <mxCell id="Qll9KSVg3EDIvkz421HC-15" value="&lt;font style=&quot;font-size: 18px&quot;&gt;直接返回&lt;/font&gt;" style="whiteSpace=wrap;html=1;rounded=1;fillColor=#F45B69;strokeColor=#028090;fontColor=#E4FDE1;" vertex="1" parent="1">
          <mxGeometry x="280" y="450" width="120" height="60" as="geometry" />
        </mxCell>
        <mxCell id="Qll9KSVg3EDIvkz421HC-18" value="&lt;font style=&quot;font-size: 18px&quot;&gt;重启生效&lt;/font&gt;" style="ellipse;whiteSpace=wrap;html=1;rounded=1;fillColor=#F45B69;strokeColor=#028090;fontColor=#E4FDE1;" vertex="1" parent="1">
          <mxGeometry x="280" y="550" width="120" height="60" as="geometry" />
        </mxCell>
        <mxCell id="Qll9KSVg3EDIvkz421HC-22" value="&lt;font style=&quot;font-size: 18px&quot;&gt;是&lt;/font&gt;" style="rounded=0;whiteSpace=wrap;html=1;sketch=0;fontColor=#E4FDE1;strokeColor=#028090;fillColor=#F45B69;" vertex="1" parent="1">
          <mxGeometry x="210" y="410" width="40" height="20" as="geometry" />
        </mxCell>
        <mxCell id="Qll9KSVg3EDIvkz421HC-23" value="&lt;span style=&quot;font-size: 18px&quot;&gt;否&lt;/span&gt;" style="rounded=0;whiteSpace=wrap;html=1;sketch=0;fontColor=#E4FDE1;strokeColor=#028090;fillColor=#F45B69;" vertex="1" parent="1">
          <mxGeometry x="260" y="330" width="40" height="20" as="geometry" />
        </mxCell>
      </root>
    </mxGraphModel>
  </diagram>
</mxfile>
